<?xml version="1.0" standalone="no"?><!DOCTYPE svg PUBLIC "-//W3C//DTD SVG 1.1//EN" "http://www.w3.org/Graphics/SVG/1.1/DTD/svg11.dtd"><svg t="1757509770653" class="icon" viewBox="0 0 1024 1024" version="1.1" xmlns="http://www.w3.org/2000/svg" p-id="2295" xmlns:xlink="http://www.w3.org/1999/xlink" width="200" height="200"><path d="M496.62412 43.845659c-182.326583 0-341.395346 99.575226-425.792691 247.312078-16.557871 28.983775-8.031938 108.755155-8.031937 108.755154S12.591882 449.346507 9.083909 484.190236a495.536148 495.536148 0 0 0-2.48798 49.683614c0 84.573343 21.425833 164.142724 59.14354 233.576184l766.822039 84.001347 109.207151-112.423126c28.809776-62.409515 44.881651-131.904975 44.881651-205.156405 0.004-270.633896-219.390295-490.026191-490.02619-490.026191z" fill="#78E9E1" p-id="2296"></path><path d="M108.439137 550.003725c19.411849 24.019813 49.101618 39.383694 82.39136 39.383693 31.089758 0 59.037541-13.399896 78.40539-34.73573 15.733878-17.331865 39.477693-24.689808 62.131517-18.801853a126.635016 126.635016 0 0 0 31.893752 4.057968c71.563444 0 129.268995-59.339539 126.595016-131.498978-2.347982-63.369507-52.169594-115.8311-115.341103-121.375056a127.755007 127.755007 0 0 0-18.833854-0.267998c-19.761846 1.181991-38.907698-5.985953-53.763582-19.071852-17.425865-15.349881-40.291687-24.663808-65.341492-24.663808-26.257796 0-50.11561 10.23192-67.823473 26.923791-15.993876 15.077883-37.623708 22.459825-59.427538 19.683847a115.7371 115.7371 0 0 0-38.481701 1.523988 486.892215 486.892215 0 0 0-61.75752 193.026499c13.599894 14.683886 30.93376 25.857799 50.499608 32.005751 19.28185 6.059953 36.153719 18.093859 48.85362 33.809738zM960.572513 375.759079a98.923231 98.923231 0 0 0-34.067735 20.991837c-15.993876 15.075883-37.623708 22.459825-59.427538 19.683847a117.425087 117.425087 0 0 0-20.067844-0.815994c-61.001526 2.711979-110.039145 53.131587-111.131136 114.183113-0.947993 53.049588 33.593739 98.151237 81.461366 113.19112 19.27785 6.057953 36.149719 18.091859 48.849621 33.807737 19.411849 24.019813 49.101618 39.383694 82.391359 39.383694 1.025992 0 2.039984-0.054 3.057976-0.082 22.581824-56.331562 35.013728-117.827084 35.013728-182.228583 0.002-55.32757-9.177929-108.509157-26.079797-158.114771z" fill="#FFFFFF" p-id="2297"></path><path d="M668.798781 129.152996s247.148079-46.855636 324.009481 182.214584-50.979604 428.070672-50.979603 428.070672L843.437424 519.509962a22.745823 22.745823 0 0 1 4.113968-24.785808l73.747426-79.231384-91.823286 25.449802a22.745823 22.745823 0 0 1-26.837791-12.629901z" fill="#00AE7A" p-id="2298"></path><path d="M769.457999 221.746276s87.679318-169.430683-135.442947-212.570347S232.002177 89.013308 232.002177 89.013308z" fill="#00AE7A" p-id="2299"></path><path d="M906.070937 803.131757a489.036199 489.036199 0 0 0 35.671722-64.115502c-18.697855 11.339912-34.867729 24.259811-71.709442 24.259812-65.65949 0-65.65949-41.033681-131.318979-41.033681-65.65549 0-65.65549 41.033681-131.31298 41.033681-65.65549 0-65.65549-41.033681-131.308979-41.033681-65.65149 0-65.65149 41.033681-131.302979 41.033681-65.65349 0-65.65349-41.033681-131.308979-41.033681s-65.65549 41.033681-131.31098 41.033681c-7.199944 0-13.571894-0.517996-19.367849-1.395989a489.448195 489.448195 0 0 0 32.657746 53.403584 63.399507 63.399507 0 0 0 51.853597 26.919791h686.348665c29.175773 0 56.355562-14.709886 72.409437-39.071696z" fill="#33A2FF" p-id="2300"></path><path d="M789.733841 926.574797a492.844169 492.844169 0 0 0 117.519087-125.259026c-18.491856 11.267912-34.70173 23.961814-71.221447 23.961814-65.65949 0-65.65949-41.033681-131.318979-41.033681-65.65549 0-65.65549 41.033681-131.312979 41.033681-65.65549 0-65.65549-41.033681-131.30898-41.033681-65.65149 0-65.65149 41.033681-131.302979 41.033681-65.65349 0-65.65349-41.033681-131.308979-41.033681-44.557654 0-58.889542 18.891853-84.013347 31.037758a492.75017 492.75017 0 0 0 77.831395 86.757326z" fill="#61DAFF" p-id="2301"></path><path d="M371.099095 902.168987S360.687176 531.925865 641.818991 198.732455l39.429693 23.657816s-21.499833 79.635381-37.991704 193.822494c-0.307998 2.137983-0.799994 5.605956-1.137991 8.005937l-0.373998 2.66398s-0.499996 3.619972-0.747994 5.439957c-18.565856 136.35694-28.701777 316.579539 11.235913 469.848348H371.099095z" fill="#965028" p-id="2302"></path><path d="M656.912874 333.637406c12.709901-68.18547 24.333811-111.249135 24.33381-111.249135L641.818991 198.730455C360.687176 531.923865 371.099095 902.168987 371.099095 902.168987h105.723178c0.871993-56.459561 14.415888-308.673601 180.090601-568.531581z" fill="#783C28" p-id="2303"></path><path d="M794.291806 923.120824c-55.871566-84.035347-179.604604-142.462893-323.281487-142.462892-128.377002 0-220.858283 51.627599-283.209799 121.509055 21.335834 19.32385 24.133812 31.537755 48.023627 46.547638 167.692696 105.357181 390.492965 103.081199 558.467659-25.593801z" fill="#F5BC71" p-id="2304"></path><path d="M315.435528 805.189741c-0.811994 0.269998-1.615987 0.547996-2.421981 0.823994-53.98558 18.403857-107.081168 48.471623-145.184872 91.175291a491.840177 491.840177 0 0 0 67.967472 51.573599c41.047681-86.781325 151.466823-152.186817 286.503773-165.568713-0.135999-0.014-0.273998-0.024-0.409997-0.036-68.625467-6.741948-140.802905 0.079999-206.454395 22.031829z" fill="#D99348" p-id="2305"></path><path d="M769.457999 221.746276s11.127913-4.747963-26.987791-32.559747c-64.167501-46.823636-256.924003-94.321267-387.062991-16.597871C147.96683 296.481695 115.515082 530.769874 115.515082 530.769874l66.987479-31.655754a40.701684 40.701684 0 0 0 22.175828-27.253788l8.745932-36.251718 29.009774 20.883837a25.059805 25.059805 0 0 0 25.349803 2.319982l64.181501-30.329764a25.063805 25.063805 0 0 0 14.333889-23.683816l-4.361966-106.619171 52.041595 77.429398a25.063805 25.063805 0 0 0 31.507756 8.679933z" fill="#00C98F" p-id="2306"></path><path d="M457.99442 154.122802c15.291881-9.133929 30.307764-16.511872 45.00965-22.371826-44.711652-1.591988-94.505265 9.127929-147.596853 40.837682C147.96683 296.481695 115.515082 530.769874 115.515082 530.769874l75.047417-35.463724a22.063828 22.063828 0 0 0 12.023906-14.777885l10.837916-44.917651 19.855846 14.293889c24.39581-78.215392 84.677342-212.146351 224.714253-295.781701z" fill="#00AE7A" p-id="2307"></path><path d="M395.570905 836.605497h-35.659723c-8.165937 0-14.845885-6.681948-14.845884-14.845885 0-8.165937 6.681948-14.845885 14.845884-14.845884h35.659723c8.165937 0 14.845885 6.681948 14.845885 14.845884s-6.681948 14.845885-14.845885 14.845885zM560.245625 902.168987h-29.519771c-10.29992 0-18.725854-8.427934-18.725854-18.725854 0-10.29992 8.427934-18.725854 18.725854-18.725855h29.519771c10.29992 0 18.725854 8.427934 18.725854 18.725855 0.002 10.29792-8.425935 18.725854-18.725854 18.725854zM423.816685 959.964538h-47.461631c-6.307951 0-11.469911-5.16196-11.46991-11.469911 0-6.307951 5.16196-11.469911 11.46991-11.469911h47.461631c6.307951 0 11.469911 5.16196 11.469911 11.469911 0 6.309951-5.15996 11.469911-11.469911 11.469911zM281.203794 926.426798h-41.749675c-11.819908 0-21.491833-9.671925-21.491833-21.491832s9.671925-21.491833 21.491833-21.491833h41.749675c11.819908 0 21.491833 9.671925 21.491833 21.491833s-9.671925 21.491833-21.491833 21.491832zM511.324005 980.914375h-16.63587c-5.893954 0-10.717917-4.821963-10.717917-10.717917 0-5.893954 4.821963-10.717917 10.717917-10.717916h16.63587c5.893954 0 10.717917 4.821963 10.717917 10.717916-0.002 5.895954-4.823963 10.717917-10.717917 10.717917zM399.670873 904.934966h-17.875861c-5.909954 0-10.745916-4.835962-10.745916-10.745917s4.835962-10.745916 10.745916-10.745916h17.875861c5.909954 0 10.745916 4.835962 10.745917 10.745916s-4.835962 10.745916-10.745917 10.745917z" fill="#D99348" p-id="2308"></path><path d="M535.657816 753.060146h-68.415468c-13.199897 0-23.999813-10.799916-23.999814-23.999813V687.214658c0-13.199897 10.799916-23.999813 23.999814-23.999813h68.415468c13.199897 0 23.999813 10.799916 23.999814 23.999813v41.845675c0 13.199897-10.799916 23.999813-23.999814 23.999813zM549.519708 614.323225h-35.483724c-6.46995 0-11.763909-5.293959-11.763908-11.763909V567.075592c0-6.46995 5.293959-11.763909 11.763908-11.763909h35.483724c6.46995 0 11.763909 5.293959 11.763909 11.763909v35.483724c-0.002 6.47195-5.293959 11.763909-11.763909 11.763909zM599.857317 488.078206h-48.955619c-5.499957 0-9.999922-4.499965-9.999923-9.999922s4.499965-9.999922 9.999923-9.999923h48.955619c5.499957 0 9.999922 4.499965 9.999922 9.999923s-4.499965 9.999922-9.999922 9.999922z" fill="#965028" p-id="2309"></path></svg>